<svg width="658" height="482" fill="none" xmlns="http://www.w3.org/2000/svg"><path d="M508.079 92.214c-20.972-22.385-37.207-49.107-62.274-67.375-39.374-28.754-96.041-31.558-142.081-13.494-46.039 18.063-81.904 54.474-105.543 95.703-12.435 21.692-22.202 45.354-40.423 63.08-15.403 14.976-35.648 24.531-54.843 34.938-30.948 16.733-60.752 36.952-80.78 64.695-20.026 27.743-28.98 64.181-16.178 95.446 8.633 21.097 26.022 37.883 43.836 53.081 20.964 17.869 43.496 34.601 69.499 45.248 32.556 13.246 68.695 16.094 104.135 17.442 62.828 2.38 125.757.601 188.319-5.323 51.23-4.844 104.011-13.113 146.874-39.88 60.043-37.484 91.001-106.163 97.97-173.511 2.836-26.935 2.118-54.927-8.964-79.919-26.504-59.78-98.017-45.798-139.547-90.131Z" fill="#EFF1F7"/></svg>