<svg width="460" height="337" fill="none" xmlns="http://www.w3.org/2000/svg"><path d="M355.192 64.473c-14.661-15.65-26.011-34.334-43.535-47.106-27.526-20.104-67.141-22.065-99.327-9.435-32.186 12.63-57.258 38.087-73.784 66.912-8.693 15.167-15.521 31.711-28.259 44.104-10.769 10.471-24.921 17.152-38.34 24.428-21.636 11.699-42.472 25.836-56.472 45.233s-20.26 44.873-11.31 66.733c6.035 14.751 18.191 26.487 30.645 37.113 14.655 12.493 30.407 24.192 48.586 31.635 22.759 9.262 48.024 11.253 72.799 12.196a996.438 996.438 0 0 0 131.651-3.722c35.815-3.387 72.714-9.168 102.679-27.883 41.975-26.208 63.617-74.226 68.489-121.314 1.983-18.832 1.481-38.403-6.267-55.877-18.528-41.796-68.522-32.02-97.555-63.017Z" fill="#EFF1F7"/></svg>